<svg width="19" height="19" viewBox="0 0 19 19" fill="none" xmlns="http://www.w3.org/2000/svg">
<path d="M9.19763 0.307202C9.23297 0.00957833 9.66485 0.00957833 9.70019 0.307202L9.99645 2.804C10.379 6.02804 12.9209 8.56995 16.1449 8.95249L18.6417 9.24874C18.9394 9.28409 18.9394 9.71596 18.6417 9.75131L16.1449 10.0476C12.9209 10.4301 10.379 12.972 9.99645 16.196L9.70019 18.6928C9.66485 18.9905 9.23297 18.9905 9.19763 18.6928L8.90137 16.196C8.51883 12.972 5.97692 10.4301 2.75288 10.0476L0.256086 9.75131C-0.0415386 9.71596 -0.0415386 9.28409 0.256086 9.24874L2.75288 8.95249C5.97692 8.56995 8.51883 6.02804 8.90137 2.804L9.19763 0.307202Z" fill="white"/>
</svg>
