<svg width="21" height="22" viewBox="0 0 21 22" fill="none" xmlns="http://www.w3.org/2000/svg">
<path fill-rule="evenodd" clip-rule="evenodd" d="M7.55141 3.61487C8.26811 2.79064 9.32578 2.26807 10.5056 2.26807C11.6853 2.26807 12.7429 2.79059 13.4596 3.61475C14.5493 3.53861 15.6668 3.91697 16.5011 4.75128C17.3355 5.58559 17.7138 6.70312 17.6377 7.79282C18.4617 8.50952 18.9842 9.56707 18.9842 10.7467C18.9842 11.9265 18.4616 12.9843 17.6372 13.701C17.7132 14.7905 17.3348 15.9078 16.5007 16.742C15.6665 17.5761 14.5492 17.9545 13.4597 17.8786C12.743 18.7028 11.6853 19.2253 10.5056 19.2253C9.32586 19.2253 8.26825 18.7028 7.55155 17.8787C6.46183 17.9548 5.34428 17.5765 4.50997 16.7421C3.67565 15.9078 3.29729 14.7903 3.37343 13.7006C2.54937 12.9839 2.02692 11.9263 2.02692 10.7467C2.02692 9.56701 2.54942 8.50941 3.37355 7.79271C3.2975 6.70309 3.67587 5.58567 4.51011 4.75143C5.34436 3.91718 6.46179 3.53881 7.55141 3.61487ZM13.6451 9.16918C13.8545 8.87607 13.7866 8.46874 13.4935 8.25937C13.2003 8.05001 12.793 8.1179 12.5836 8.41101L9.77013 12.3499L8.35792 10.9377C8.10322 10.683 7.69027 10.683 7.43557 10.9377C7.18087 11.1924 7.18087 11.6054 7.43557 11.8601L9.39218 13.8167C9.52774 13.9523 9.71609 14.0213 9.90715 14.0055C10.0982 13.9897 10.2726 13.8906 10.3841 13.7346L13.6451 9.16918Z" fill="#062949"/>
</svg>
