<svg width="42" height="42" viewBox="0 0 42 42" fill="none" xmlns="http://www.w3.org/2000/svg">
<path d="M20.779 41.5579C32.2549 41.5579 41.5579 32.2549 41.5579 20.779C41.5579 9.30305 32.2549 0 20.779 0C9.30305 0 0 9.30305 0 20.779C0 32.2549 9.30305 41.5579 20.779 41.5579Z" fill="white"/>
<path d="M27.537 6.37793H22.9339C20.2023 6.37793 17.164 7.5268 17.164 11.4864C17.1773 12.866 17.164 14.1874 17.164 15.6744H14.0039V20.7031H17.2618V35.1797H23.2483V20.6075H27.1996L27.5571 15.6603H23.1452C23.1452 15.6603 23.155 13.4596 23.1452 12.8205C23.1452 11.2557 24.7733 11.3453 24.8713 11.3453C25.646 11.3453 27.1525 11.3476 27.5392 11.3453V6.37793H27.537Z" fill="#062949"/>
</svg>
