<svg width="40" height="39" viewBox="0 0 40 39" fill="none" xmlns="http://www.w3.org/2000/svg">
<path d="M38.3148 20.2125C38.3148 18.8618 38.1936 17.5631 37.9685 16.3164H20.0293V23.6929H30.2802C29.83 26.0652 28.4794 28.0738 26.4535 29.4245V34.2209H32.6352C36.2369 30.8963 38.3148 26.0133 38.3148 20.2125Z" fill="white"/>
<path d="M20.0295 38.8251C25.1723 38.8251 29.4839 37.1282 32.6354 34.2191L26.4537 29.4226C24.7567 30.5655 22.5922 31.2581 20.0295 31.2581C15.0772 31.2581 10.8694 27.9162 9.36297 23.4141H3.02539V28.3317C6.15955 34.5481 12.5837 38.8251 20.0295 38.8251Z" fill="white"/>
<path d="M9.36327 23.3989C8.98232 22.256 8.75721 21.0439 8.75721 19.7799C8.75721 18.5158 8.98232 17.3037 9.36327 16.1608V11.2432H3.02569C1.727 13.8059 0.982422 16.6976 0.982422 19.7799C0.982422 22.8621 1.727 25.7538 3.02569 28.3165L7.96069 24.4724L9.36327 23.3989Z" fill="white"/>
<path d="M20.0295 8.31576C22.8347 8.31576 25.3281 9.28545 27.3195 11.1556L32.7739 5.70108C29.4666 2.61887 25.1723 0.731445 20.0295 0.731445C12.5837 0.731445 6.15955 5.00845 3.02539 11.2421L9.36297 16.1598C10.8694 11.6577 15.0772 8.31576 20.0295 8.31576Z" fill="white"/>
</svg>
