<svg width="20" height="20" viewBox="0 0 20 20" fill="none" xmlns="http://www.w3.org/2000/svg">
<path fill-rule="evenodd" clip-rule="evenodd" d="M9.7636 3.66602C8.15755 3.66602 7.95557 3.66602 7.32497 3.70057C6.6993 3.73019 6.26577 3.82893 5.89628 3.97703C5.50216 4.12514 5.16716 4.33248 4.83708 4.65337C4.52178 4.99895 4.3198 5.32478 4.16707 5.71479C4.01928 6.08998 3.92075 6.52442 3.89119 7.14646C3.85178 7.78824 3.85178 7.98571 3.85178 9.59017C3.85178 11.1946 3.85178 11.402 3.88626 12.0339C3.91582 12.6609 4.01435 13.0953 4.16215 13.4656C4.30994 13.8605 4.51686 14.1913 4.84201 14.522C5.18686 14.8281 5.52187 15.0305 5.91106 15.1836C6.28548 15.3317 6.71901 15.4304 7.33975 15.46C7.9802 15.4946 8.17726 15.4995 9.7833 15.4995C11.3893 15.4995 11.5963 15.4995 12.2269 15.46C12.8476 15.4304 13.2811 15.3317 13.6555 15.1836C14.0497 15.0355 14.3748 14.8281 14.7049 14.5023C15.0251 14.1666 15.2271 13.8358 15.3798 13.4458C15.5276 13.0706 15.6262 12.6362 15.6508 12.0141C15.6803 11.3724 15.6853 11.1749 15.6853 9.56548C15.6853 7.95609 15.6853 7.75368 15.6508 7.12177C15.6212 6.50467 15.5227 6.07023 15.3749 5.6901C15.2271 5.29516 15.0103 4.97427 14.6852 4.6435C14.3453 4.3078 14.025 4.11033 13.6358 3.96222C13.2614 3.81412 12.8279 3.71538 12.2072 3.68083C11.5716 3.66602 11.3746 3.66602 9.7636 3.66602ZM9.76392 4.73242C11.3404 4.73242 11.5276 4.73242 12.1533 4.76698C12.7297 4.7966 13.0401 4.8904 13.2519 4.97432C13.5278 5.07306 13.7248 5.20635 13.9318 5.41864C14.1387 5.61611 14.2668 5.81358 14.3751 6.09498C14.454 6.30726 14.5476 6.61828 14.5722 7.19588C14.6067 7.82286 14.6116 8.01045 14.6116 9.59023C14.6116 11.17 14.6116 11.3576 14.5771 11.9846C14.5476 12.5622 14.454 12.8732 14.3702 13.0855C14.2717 13.3619 14.1387 13.5594 13.9268 13.7668C13.7298 13.9741 13.5327 14.1025 13.2519 14.2111C13.0401 14.2901 12.7297 14.3839 12.1533 14.4085C11.5276 14.4431 11.3404 14.448 9.76392 14.448C8.18744 14.448 8.00023 14.448 7.37456 14.4135C6.79816 14.3839 6.48779 14.2901 6.27595 14.2061C6.00006 14.1074 5.803 13.9741 5.59609 13.7618C5.38917 13.5643 5.26109 13.3669 5.1527 13.0855C5.07388 12.8732 4.98027 12.5622 4.95564 11.9846C4.92116 11.3576 4.91623 11.17 4.91623 9.59023C4.91623 8.01045 4.91623 7.82286 4.95071 7.19588C4.98027 6.61828 5.07388 6.30726 5.15763 6.09498C5.25616 5.81852 5.38917 5.62104 5.60102 5.4137C5.79808 5.20635 5.99514 5.078 6.27595 4.96939C6.48779 4.8904 6.79816 4.7966 7.37456 4.77192C8.00023 4.73736 8.18744 4.73242 9.76392 4.73242ZM6.72887 9.58981C6.72887 7.9113 8.08858 6.54874 9.7636 6.54874C11.4386 6.54874 12.7983 7.9113 12.7983 9.58981C12.7983 11.2683 11.4386 12.6309 9.7636 12.6309C8.08858 12.6309 6.72887 11.2683 6.72887 9.58981ZM9.76359 11.5647C8.67976 11.5647 7.79299 10.676 7.79299 9.58995C7.79299 8.50386 8.67976 7.61523 9.76359 7.61523C10.8474 7.61523 11.7342 8.50386 11.7342 9.58995C11.7342 10.676 10.8474 11.5647 9.76359 11.5647ZM12.9216 7.13686C13.3108 7.13686 13.631 6.82584 13.631 6.4309L13.6557 6.40621C13.6557 6.0162 13.3354 5.69531 12.9413 5.69531C12.5472 5.69531 12.2319 6.03101 12.2319 6.42596C12.2319 6.8209 12.5275 7.13686 12.9216 7.13686Z" fill="#062949"/>
</svg>
