<svg width="21" height="22" viewBox="0 0 21 22" fill="none" xmlns="http://www.w3.org/2000/svg">
<path fill-rule="evenodd" clip-rule="evenodd" d="M7.55141 3.70471C8.26811 2.88048 9.32578 2.35791 10.5056 2.35791C11.6853 2.35791 12.7429 2.88043 13.4596 3.70459C14.5493 3.62846 15.6668 4.00682 16.5011 4.84113C17.3355 5.67543 17.7138 6.79296 17.6377 7.88267C18.4617 8.59936 18.9842 9.65691 18.9842 10.8365C18.9842 12.0164 18.4616 13.0741 17.6372 13.7908C17.7132 14.8804 17.3348 15.9977 16.5007 16.8318C15.6665 17.666 14.5492 18.0444 13.4597 17.9684C12.743 18.7926 11.6853 19.3152 10.5056 19.3152C9.32586 19.3152 8.26825 18.7927 7.55155 17.9685C6.46183 18.0447 5.34428 17.6663 4.50997 16.832C3.67565 15.9977 3.29729 14.8801 3.37343 13.7904C2.54937 13.0737 2.02692 12.0162 2.02692 10.8365C2.02692 9.65685 2.54942 8.59925 3.37355 7.88255C3.2975 6.79293 3.67587 5.67551 4.51011 4.84127C5.34436 4.00703 6.46179 3.62866 7.55141 3.70471ZM13.6451 9.25902C13.8545 8.96591 13.7866 8.55858 13.4935 8.34922C13.2003 8.13985 12.793 8.20774 12.5836 8.50085L9.77013 12.4398L8.35792 11.0276C8.10322 10.7729 7.69027 10.7729 7.43557 11.0276C7.18087 11.2823 7.18087 11.6952 7.43557 11.9499L9.39218 13.9065C9.52774 14.0421 9.71609 14.1111 9.90715 14.0953C10.0982 14.0795 10.2726 13.9804 10.3841 13.8244L13.6451 9.25902Z" fill="#CDD1CC"/>
</svg>
